<svg width="103" height="16" viewBox="0 0 103 16" fill="none" xmlns="http://www.w3.org/2000/svg">
<path d="M0.264205 0.954545H4.05682L8.0625 10.7273H8.23295L12.2386 0.954545H16.0312V15.5H13.0483V6.03267H12.9276L9.16335 15.429H7.1321L3.3679 5.99716H3.24716V15.5H0.264205V0.954545ZM21.619 15.706C20.9229 15.706 20.3027 15.5852 19.7582 15.3438C19.2137 15.0975 18.7828 14.7353 18.4656 14.2571C18.1531 13.7741 17.9968 13.1728 17.9968 12.4531C17.9968 11.8471 18.1081 11.3381 18.3306 10.9261C18.5531 10.5142 18.8562 10.1828 19.2397 9.93182C19.6232 9.68087 20.0588 9.49148 20.5465 9.36364C21.0389 9.2358 21.555 9.14583 22.0948 9.09375C22.7293 9.02746 23.2406 8.96591 23.6289 8.90909C24.0172 8.84754 24.2989 8.75758 24.4741 8.6392C24.6493 8.52083 24.7369 8.34564 24.7369 8.11364V8.07102C24.7369 7.62121 24.5948 7.2732 24.3107 7.02699C24.0314 6.78078 23.6336 6.65767 23.1175 6.65767C22.573 6.65767 22.1398 6.77841 21.8178 7.01989C21.4959 7.25663 21.2828 7.55492 21.1786 7.91477L18.3803 7.6875C18.5224 7.02462 18.8017 6.4517 19.2184 5.96875C19.6351 5.48106 20.1725 5.10701 20.8306 4.84659C21.4935 4.58144 22.2605 4.44886 23.1317 4.44886C23.7378 4.44886 24.3178 4.51989 24.8718 4.66193C25.4305 4.80398 25.9253 5.02415 26.3562 5.32244C26.7918 5.62074 27.1351 6.00426 27.386 6.47301C27.637 6.93703 27.7624 7.49337 27.7624 8.14205V15.5H24.8931V13.9872H24.8079C24.6327 14.3281 24.3983 14.6288 24.1048 14.8892C23.8112 15.1449 23.4585 15.3461 23.0465 15.4929C22.6346 15.6349 22.1587 15.706 21.619 15.706ZM22.4854 13.6179C22.9305 13.6179 23.3235 13.5303 23.6644 13.3551C24.0053 13.1752 24.2728 12.9337 24.467 12.6307C24.6611 12.3277 24.7582 11.9844 24.7582 11.6009V10.4432C24.6635 10.5047 24.5333 10.5616 24.3675 10.6136C24.2066 10.661 24.0243 10.706 23.8207 10.7486C23.6171 10.7865 23.4135 10.822 23.2099 10.8551C23.0063 10.8835 22.8216 10.9096 22.6559 10.9332C22.3008 10.9853 21.9906 11.0682 21.7255 11.1818C21.4603 11.2955 21.2544 11.4493 21.1076 11.6435C20.9608 11.8329 20.8874 12.0696 20.8874 12.3537C20.8874 12.7656 21.0366 13.0805 21.3349 13.2983C21.6379 13.5114 22.0214 13.6179 22.4854 13.6179ZM32.8512 12.3608L32.8583 8.73153H33.2987L36.793 4.59091H40.266L35.5714 10.0739H34.854L32.8512 12.3608ZM30.1097 15.5V0.954545H33.1353V15.5H30.1097ZM36.9279 15.5L33.7177 10.7486L35.7347 8.6108L40.4719 15.5H36.9279ZM46.2727 15.7131C45.1506 15.7131 44.1847 15.4858 43.375 15.0312C42.5701 14.572 41.9498 13.9233 41.5142 13.0852C41.0786 12.2424 40.8608 11.2457 40.8608 10.0952C40.8608 8.97301 41.0786 7.98816 41.5142 7.14062C41.9498 6.29309 42.563 5.63258 43.3537 5.15909C44.1491 4.68561 45.0819 4.44886 46.152 4.44886C46.8717 4.44886 47.5417 4.56487 48.1619 4.79688C48.7869 5.02415 49.3314 5.36742 49.7955 5.8267C50.2642 6.28598 50.6288 6.86364 50.8892 7.55966C51.1496 8.25095 51.2798 9.06061 51.2798 9.98864V10.8196H42.0682V8.9446H48.4318C48.4318 8.509 48.3371 8.12311 48.1477 7.78693C47.9583 7.45076 47.6955 7.18797 47.3594 6.99858C47.0279 6.80445 46.642 6.70739 46.2017 6.70739C45.7424 6.70739 45.3352 6.81392 44.9801 7.02699C44.6297 7.23532 44.3551 7.51705 44.1562 7.87216C43.9574 8.22254 43.8556 8.61316 43.8509 9.04403V10.8267C43.8509 11.3665 43.9503 11.8329 44.1491 12.2259C44.3527 12.6188 44.6392 12.9219 45.0085 13.1349C45.3778 13.348 45.8158 13.4545 46.3224 13.4545C46.6586 13.4545 46.9664 13.4072 47.2457 13.3125C47.5251 13.2178 47.7642 13.0758 47.9631 12.8864C48.1619 12.697 48.3134 12.465 48.4176 12.1903L51.2159 12.375C51.0739 13.0473 50.7827 13.6345 50.3423 14.1364C49.9067 14.6335 49.3433 15.0218 48.652 15.3011C47.9654 15.5758 47.1723 15.7131 46.2727 15.7131ZM58.0128 15.7273C57.0279 15.7273 56.1638 15.4929 55.4205 15.0241C54.6818 14.5554 54.1042 13.8996 53.6875 13.0568C53.2756 12.214 53.0696 11.2292 53.0696 10.1023C53.0696 8.96591 53.2756 7.97396 53.6875 7.12642C54.1042 6.27888 54.6818 5.62074 55.4205 5.15199C56.1638 4.68324 57.0279 4.44886 58.0128 4.44886C58.9976 4.44886 59.8594 4.68324 60.598 5.15199C61.3414 5.62074 61.919 6.27888 62.331 7.12642C62.7476 7.97396 62.956 8.96591 62.956 10.1023C62.956 11.2292 62.7476 12.214 62.331 13.0568C61.919 13.8996 61.3414 14.5554 60.598 15.0241C59.8594 15.4929 58.9976 15.7273 58.0128 15.7273ZM58.0128 14.2216C58.7609 14.2216 59.3764 14.0298 59.8594 13.6463C60.3423 13.2628 60.6998 12.7585 60.9318 12.1335C61.1638 11.5085 61.2798 10.8314 61.2798 10.1023C61.2798 9.37311 61.1638 8.69366 60.9318 8.06392C60.6998 7.43419 60.3423 6.92519 59.8594 6.53693C59.3764 6.14867 58.7609 5.95455 58.0128 5.95455C57.2647 5.95455 56.6491 6.14867 56.1662 6.53693C55.6832 6.92519 55.3258 7.43419 55.0938 8.06392C54.8617 8.69366 54.7457 9.37311 54.7457 10.1023C54.7457 10.8314 54.8617 11.5085 55.0938 12.1335C55.3258 12.7585 55.6832 13.2628 56.1662 13.6463C56.6491 14.0298 57.2647 14.2216 58.0128 14.2216ZM65.5146 15.5V4.59091H67.1339V6.23864H67.2475C67.4464 5.69886 67.8062 5.26089 68.3271 4.92472C68.8479 4.58854 69.435 4.42045 70.0884 4.42045C70.2115 4.42045 70.3654 4.42282 70.5501 4.42756C70.7347 4.43229 70.8744 4.43939 70.9691 4.44886V6.15341C70.9123 6.1392 70.7821 6.1179 70.5785 6.08949C70.3796 6.05634 70.1689 6.03977 69.9464 6.03977C69.4161 6.03977 68.9426 6.15104 68.5259 6.37358C68.114 6.59138 67.7873 6.89441 67.5458 7.28267C67.3091 7.66619 67.1907 8.10417 67.1907 8.59659V15.5H65.5146ZM76.7433 15.7273C75.8342 15.7273 75.0316 15.4976 74.3356 15.0384C73.6396 14.5743 73.0951 13.9209 72.7021 13.0781C72.3091 12.2306 72.1126 11.2292 72.1126 10.0739C72.1126 8.92803 72.3091 7.93371 72.7021 7.09091C73.0951 6.24811 73.6419 5.59706 74.3427 5.13778C75.0434 4.6785 75.8531 4.44886 76.7717 4.44886C77.4819 4.44886 78.043 4.56723 78.4549 4.80398C78.8716 5.03598 79.1888 5.30114 79.4066 5.59943C79.6291 5.89299 79.802 6.13447 79.9251 6.32386H80.0671V0.954545H81.7433V15.5H80.1239V13.8239H79.9251C79.802 14.0227 79.6268 14.2737 79.3995 14.5767C79.1722 14.875 78.8479 15.1425 78.4265 15.3793C78.0051 15.6113 77.444 15.7273 76.7433 15.7273ZM76.9705 14.2216C77.6429 14.2216 78.2111 14.0464 78.6751 13.696C79.1391 13.3409 79.4918 12.8509 79.7333 12.2259C79.9748 11.5961 80.0955 10.8693 80.0955 10.0455C80.0955 9.23106 79.9772 8.51847 79.7404 7.90767C79.5037 7.29214 79.1533 6.81392 78.6893 6.47301C78.2253 6.12737 77.6523 5.95455 76.9705 5.95455C76.2603 5.95455 75.6684 6.13684 75.195 6.50142C74.7262 6.86127 74.3735 7.35133 74.1367 7.97159C73.9047 8.58712 73.7887 9.27841 73.7887 10.0455C73.7887 10.822 73.9071 11.5275 74.1438 12.1619C74.3853 12.7917 74.7404 13.2936 75.2092 13.6676C75.6826 14.0369 76.2698 14.2216 76.9705 14.2216ZM89.6197 15.7273C88.5685 15.7273 87.6618 15.4953 86.8995 15.0312C86.1419 14.5625 85.5572 13.9091 85.1452 13.071C84.738 12.2282 84.5344 11.2481 84.5344 10.1307C84.5344 9.01326 84.738 8.02841 85.1452 7.17614C85.5572 6.31913 86.1301 5.65152 86.864 5.1733C87.6026 4.69034 88.4644 4.44886 89.4492 4.44886C90.0174 4.44886 90.5785 4.54356 91.1325 4.73295C91.6864 4.92235 92.1907 5.23011 92.6452 5.65625C93.0998 6.07765 93.462 6.63636 93.7319 7.33239C94.0018 8.02841 94.1367 8.88542 94.1367 9.90341V10.6136H85.7276V9.16477H92.4322C92.4322 8.54924 92.3091 8 92.0629 7.51705C91.8214 7.03409 91.4757 6.65294 91.0259 6.37358C90.5808 6.09422 90.0553 5.95455 89.4492 5.95455C88.7816 5.95455 88.204 6.12026 87.7163 6.4517C87.2333 6.77841 86.8616 7.20455 86.6012 7.73011C86.3408 8.25568 86.2106 8.81913 86.2106 9.42045V10.3864C86.2106 11.2102 86.3526 11.9086 86.6367 12.4815C86.9255 13.0497 87.3256 13.483 87.837 13.7812C88.3484 14.0748 88.9426 14.2216 89.6197 14.2216C90.06 14.2216 90.4577 14.16 90.8129 14.0369C91.1727 13.9091 91.4828 13.7197 91.7433 13.4688C92.0037 13.2131 92.2049 12.8958 92.3469 12.517L93.9663 12.9716C93.7958 13.5208 93.5094 14.0038 93.1069 14.4205C92.7044 14.8324 92.2073 15.1544 91.6154 15.3864C91.0236 15.6136 90.3583 15.7273 89.6197 15.7273ZM96.6864 15.5V4.59091H98.3058V6.23864H98.4194C98.6183 5.69886 98.9781 5.26089 99.4989 4.92472C100.02 4.58854 100.607 4.42045 101.26 4.42045C101.383 4.42045 101.537 4.42282 101.722 4.42756C101.907 4.43229 102.046 4.43939 102.141 4.44886V6.15341C102.084 6.1392 101.954 6.1179 101.75 6.08949C101.551 6.05634 101.341 6.03977 101.118 6.03977C100.588 6.03977 100.114 6.15104 99.6978 6.37358C99.2859 6.59138 98.9592 6.89441 98.7177 7.28267C98.4809 7.66619 98.3626 8.10417 98.3626 8.59659V15.5H96.6864Z" fill="#1F2633"/>
</svg>
